ply
format ascii 1.0
comment VTK generated PLY File
obj_info vtkPolyData points and polygons: vtk4.0
element vertex 244
property float x
property float y
property float z
element face 490
property list uchar int vertex_indices
end_header
5842.01 7045.47 190.652 
5896.45 7121.28 197 
5917.82 7121.28 196.291 
5917.82 7045.47 189.129 
5766.2 6969.66 194.54 
5766.2 7045.47 190.898 
5993.63 7121.28 193.701 
5926.75 7130.21 197 
5842.01 7104.49 197 
5917.82 7018.32 197 
5917.82 7123.73 197 
5824.7 7103.97 197 
5844.98 6969.66 197 
5993.63 7045.47 188.191 
6145.24 7045.47 186.654 
5842.01 6969.66 196.424 
6069.44 7121.28 192.672 
5964.49 7016.33 197 
6050.11 7026.14 197 
5993.63 7022.4 197 
7661.42 7783.64 197 
7700 7712.91 197 
7700 7803.14 197 
7633.05 7775.19 197 
7661.42 7703.97 197 
7509.8 7727.75 194.238 
7585.61 7727.75 187.727 
7433.99 7651.94 179.572 
7358.18 7651.94 184.523 
7282.37 7651.94 189.298 
7495.92 7727.75 197 
7516.56 7734.51 197 
7585.61 7651.94 167.657 
7282.37 7668.62 197 
7700 7766.33 186.755 
7585.61 7746.49 197 
7585.61 7687.23 197 
7636.98 7703.31 197 
7526.74 7651.94 197 
7509.8 7732.06 197 
7282.37 7576.13 172.123 
7396.31 7690.07 197 
7433.99 7696.34 197 
7509.8 7634.42 197 
7433.99 7619.78 197 
7476.82 7618.96 197 
6903.33 7569.41 197 
7054.95 7576.13 191.347 
7130.76 7576.13 185.61 
7206.57 7576.13 178.708 
7358.18 7676.81 197 
7299.93 7669.5 197 
7312.19 7605.95 197 
7358.18 7599.97 197 
7401.61 7619.56 197 
7654.2 7568.91 197 
7661.42 7568.91 197 
7700 7563.55 197 
7054.95 7500.32 176.934 
7241.56 7651.94 197 
7282.37 7597.66 197 
7178.75 7624.12 197 
7206.57 7631.83 197 
7077.21 7598.39 197 
7130.76 7610.68 197 
7226.23 7576.13 197 
7585.26 7575.78 197 
7509.8 7543.02 197 
6979.14 7500.32 180.503 
7130.76 7516.8 197 
7174.98 7544.54 197 
7054.95 7592.04 197 
7055.53 7500.9 197 
7358.18 7558.67 197 
7416.37 7558.51 197 
7433.99 7558.51 197 
7476.69 7543.02 197 
6751.71 7500.32 189.137 
6893.69 7566.49 197 
6903.33 7424.52 178.586 
6988.68 7576.13 197 
7053.55 7500.32 197 
6979.14 7572.56 197 
6973.59 7570.58 197 
7282.37 7504.75 197 
7206.57 7547.16 197 
7274.87 7500.32 197 
7191.98 7485.73 197 
7206.57 7485.67 197 
7288.49 7506.44 197 
7367.29 7357.82 197 
7358.18 7357.82 197 
7316.81 7348.71 197 
7433.99 7373.52 197 
7458.8 7373.52 197 
7509.8 7376.78 197 
7537.87 7376.78 197 
7585.61 7383.42 197 
7585.61 7575.78 197 
7620.32 7383.42 197 
7661.42 7389.45 197 
6600.1 7500.32 196.674 
6600.1 7500.8 197 
6600.76 7500.98 197 
6599.16 7500.32 197 
6696.34 7520.76 197 
6675.9 7500.32 188.249 
6531.26 7431.49 197 
6412.58 7348.71 197 
6372.67 7325.56 197 
6675.9 7424.52 186.923 
6600.1 7424.52 190.709 
6751.71 7424.52 185.192 
6675.9 7514.71 197 
6751.71 7519.21 197 
6730.28 7175.66 197 
6751.71 7179.48 197 
6675.9 7175.66 197 
6784.69 7533.3 197 
6827.52 7530.85 197 
6903.33 7249.68 197 
6959.2 7252.96 197 
7117.74 7487.3 197 
7130.76 7487.35 197 
7054.95 7500.67 197 
7054.95 7499.89 197 
7282.37 7343.88 197 
7054.33 7499.7 197 
7054.95 7299.58 197 
7081.63 7299.58 197 
7130.76 7304.02 197 
7162.13 7304.27 197 
7206.57 7310.09 197 
6448.48 7348.71 195.855 
6522.17 7422.4 197 
6524.29 7348.71 192.128 
6600.1 7348.71 188.415 
6524.69 7424.52 197 
6524.29 7424.01 197 
6524.29 7272.9 189.701 
6448.48 7272.9 192.02 
6600.1 7171.21 197 
6650.03 7171.21 197 
7433.99 7424.52 188.529 
7206.57 7348.71 188.645 
7282.37 7500.32 177.303 
7509.8 7424.52 188.529 
7509.8 7576.13 168.059 
7585.61 7424.52 188.529 
7661.42 7424.52 188.529 
7700 7424.52 188.504 
7700 7389.34 197 
6448.48 7357.46 197 
7274.27 7340.61 197 
6372.67 7272.9 194.104 
6307.39 7272.9 197 
6281.58 7257.62 197 
6372.67 7197.09 189.664 
6524.29 7143.03 197 
6448.48 7109.4 197 
7130.76 7348.71 188.529 
7206.57 7500.32 174.239 
6979.14 7272.9 190.153 
7130.76 7500.32 174.609 
7024.49 7272.9 197 
6979.14 7249.67 197 
6827.52 7184.89 197 
6827.52 7197.09 187.579 
6903.33 7272.9 188.529 
6296.86 7197.09 193.312 
6221.05 7121.28 190.788 
6221.05 7197.09 195.15 
6296.86 7264.38 197 
6327.78 7076.39 197 
6372.67 7072.51 197 
6852.49 7197.09 197 
6158.27 7197.09 197 
6145.24 7121.28 191.422 
6296.86 7078.17 197 
6221.05 7217.45 197 
6808.43 7178 197 
6448.48 7121.28 190.268 
6751.71 7197.09 188.529 
6403.24 7076.04 197 
6827.52 7348.71 184.53 
6751.71 7272.9 187.204 
6139.06 7190.91 197 
6145.24 7192.21 197 
6221.05 7043.55 197 
6233.56 7045.47 197 
6218.51 7042.93 197 
6145.24 7027.07 197 
6600.1 7197.09 188.529 
6524.29 7197.09 188.529 
6600.1 7272.9 188.525 
6675.9 7272.9 187.589 
6675.9 7197.09 188.529 
6448.48 7197.09 188.529 
6498.81 7121.28 197 
6546.04 7143.03 197 
5993.63 7150.33 197 
6038.6 7166.25 197 
6069.44 7171.06 197 
6125.06 7025.29 197 
6069.44 7030.72 197 
6372.67 7121.28 188.792 
6296.86 7121.28 189.548 
5690.39 7045.47 194.973 
5703.4 7058.48 197 
5538.77 6969.66 193.136 
5572.05 7002.94 197 
5668.33 7045.47 197 
5690.39 6969.66 194.66 
5614.58 6969.66 194.798 
5766.2 7074.59 197 
5838.89 6966.54 197 
5842.01 6968.39 197 
5766.2 6957.91 197 
5690.39 7052.39 197 
5750.04 6953.5 197 
5574.89 6929.97 197 
5614.58 6993.04 197 
5669.23 6948.5 197 
5690.39 6954.12 197 
5614.58 6949.42 197 
5489.13 6969.66 197 
5538.77 6990.42 197 
5538.77 6919.74 197 
5496.67 6927.55 197 
7661.42 7651.94 167.276 
7700 7651.94 166.984 
7700 7690.52 172.816 
7700 7727.75 179.774 
7700 7576.13 174.886 
6675.9 7348.71 186.952 
6751.71 7348.71 185.516 
7700 7651.94 186.984 
7700 7614.71 171.164 
7700 7690.52 192.816 
7700 7614.71 191.164 
7700 7576.13 194.886 
7700 7538.9 181.143 
7700 7500.32 186.616 
7700 7463.09 186.616 
3 0 1 2 
3 0 2 3 
3 0 3 4 
3 0 5 1 
3 0 4 5 
3 2 6 3 
3 2 1 7 
3 2 7 6 
3 1 8 9 
3 1 10 7 
3 1 9 10 
3 1 5 11 
3 1 11 8 
3 8 12 9 
3 8 11 12 
3 13 3 6 
3 13 14 15 
3 13 6 16 
3 13 15 3 
3 13 16 14 
3 3 15 4 
3 9 12 17 
3 9 17 10 
3 17 18 19 
3 17 12 18 
3 17 19 7 
3 17 7 10 
3 20 21 22 
3 20 23 24 
3 20 22 23 
3 20 24 21 
3 25 23 26 
3 25 27 28 
3 25 28 29 
3 25 30 31 
3 25 32 27 
3 25 29 33 
3 25 33 30 
3 25 26 32 
3 25 31 22 
3 25 22 23 
3 26 22 34 
3 26 23 22 
3 26 34 32 
3 35 23 31 
3 35 36 37 
3 35 37 23 
3 35 31 36 
3 31 38 36 
3 31 30 39 
3 31 39 38 
3 31 23 22 
3 23 37 24 
3 27 32 40 
3 27 40 28 
3 30 38 39 
3 30 41 42 
3 30 33 41 
3 30 43 38 
3 30 42 43 
3 42 41 44 
3 42 44 45 
3 42 45 43 
3 29 46 33 
3 29 47 46 
3 29 48 47 
3 29 49 48 
3 29 28 40 
3 29 40 49 
3 50 41 51 
3 50 51 52 
3 50 52 53 
3 50 54 41 
3 50 53 54 
3 51 33 52 
3 51 41 33 
3 41 54 44 
3 24 55 56 
3 24 37 55 
3 24 57 21 
3 24 56 57 
3 37 36 55 
3 49 40 58 
3 49 58 48 
3 59 33 46 
3 59 60 33 
3 59 61 62 
3 59 46 63 
3 59 63 64 
3 59 64 61 
3 59 65 60 
3 59 62 65 
3 62 61 65 
3 38 43 66 
3 38 66 36 
3 43 45 67 
3 43 67 66 
3 47 68 46 
3 47 48 68 
3 48 58 68 
3 64 69 70 
3 64 70 61 
3 64 63 69 
3 63 71 72 
3 63 46 71 
3 63 72 69 
3 61 70 65 
3 53 52 73 
3 53 74 54 
3 53 73 74 
3 52 60 73 
3 52 33 60 
3 44 54 74 
3 44 75 45 
3 44 74 75 
3 45 75 76 
3 45 76 67 
3 68 77 78 
3 68 78 46 
3 68 58 79 
3 68 79 77 
3 80 71 46 
3 80 81 71 
3 80 46 82 
3 80 82 81 
3 82 83 81 
3 82 46 83 
3 65 84 60 
3 65 70 85 
3 65 86 84 
3 65 85 86 
3 85 70 87 
3 85 88 86 
3 85 87 88 
3 84 89 60 
3 84 86 89 
3 89 73 60 
3 89 90 73 
3 89 91 90 
3 89 86 92 
3 89 92 91 
3 73 93 74 
3 73 90 93 
3 74 76 75 
3 74 93 76 
3 76 93 94 
3 76 95 67 
3 76 94 95 
3 67 95 96 
3 67 97 66 
3 67 96 97 
3 66 98 36 
3 66 97 98 
3 98 55 36 
3 98 99 55 
3 98 97 99 
3 55 100 56 
3 55 99 100 
3 56 100 57 
3 101 102 103 
3 101 104 102 
3 101 103 105 
3 101 105 106 
3 101 106 107 
3 101 108 109 
3 101 109 104 
3 101 107 108 
3 106 110 111 
3 106 105 78 
3 106 78 77 
3 106 112 110 
3 106 111 107 
3 106 79 112 
3 106 77 79 
3 113 114 105 
3 113 103 107 
3 113 105 103 
3 113 115 116 
3 113 117 115 
3 113 116 114 
3 113 107 117 
3 103 102 104 
3 103 104 107 
3 114 118 105 
3 114 119 118 
3 114 116 120 
3 114 120 119 
3 105 118 78 
3 119 78 118 
3 119 121 81 
3 119 120 121 
3 119 81 78 
3 46 81 83 
3 46 78 81 
3 69 72 122 
3 69 122 123 
3 69 123 87 
3 69 87 70 
3 72 124 125 
3 72 125 122 
3 72 71 81 
3 72 81 124 
3 86 88 126 
3 86 126 92 
3 125 127 122 
3 125 124 127 
3 122 127 128 
3 122 128 129 
3 122 129 130 
3 122 130 123 
3 123 131 87 
3 123 130 131 
3 87 132 88 
3 87 131 132 
3 111 133 108 
3 111 108 134 
3 111 135 133 
3 111 134 107 
3 111 136 135 
3 111 110 136 
3 107 137 138 
3 107 134 137 
3 107 104 108 
3 107 138 117 
3 137 134 138 
3 135 136 139 
3 135 140 133 
3 135 139 140 
3 138 134 141 
3 138 142 117 
3 138 141 142 
3 143 144 145 
3 143 146 90 
3 143 90 144 
3 143 145 147 
3 143 147 146 
3 91 92 90 
3 90 146 94 
3 90 94 93 
3 90 132 144 
3 90 92 132 
3 146 147 148 
3 146 95 94 
3 146 96 95 
3 146 148 96 
3 148 147 149 
3 148 149 96 
3 96 99 97 
3 96 149 99 
3 149 147 150 
3 149 150 99 
3 99 150 151 
3 99 151 100 
3 100 151 57 
3 133 140 108 
3 134 108 152 
3 134 152 141 
3 92 153 132 
3 92 126 153 
3 154 155 109 
3 154 156 155 
3 154 157 156 
3 154 109 108 
3 154 108 140 
3 154 140 157 
3 108 104 109 
3 108 158 152 
3 108 109 158 
3 109 155 159 
3 109 159 158 
3 160 161 144 
3 160 162 163 
3 160 144 162 
3 160 163 161 
3 128 164 129 
3 128 81 121 
3 128 127 81 
3 128 121 164 
3 129 164 130 
3 144 132 162 
3 144 161 145 
3 130 164 131 
3 131 164 165 
3 131 165 132 
3 132 165 166 
3 132 166 167 
3 132 153 88 
3 132 167 162 
3 153 126 88 
3 162 167 168 
3 162 168 79 
3 162 79 163 
3 164 121 165 
3 169 170 171 
3 169 171 156 
3 169 156 157 
3 169 157 170 
3 155 156 172 
3 155 172 159 
3 172 156 173 
3 172 173 174 
3 172 174 159 
3 168 167 79 
3 120 175 121 
3 120 116 175 
3 121 175 165 
3 171 176 156 
3 171 177 176 
3 171 170 177 
3 156 178 173 
3 156 176 179 
3 156 179 178 
3 167 166 180 
3 167 181 182 
3 167 180 183 
3 167 183 181 
3 167 184 79 
3 167 185 184 
3 167 182 185 
3 175 166 165 
3 175 116 166 
3 177 186 176 
3 177 16 186 
3 177 170 14 
3 177 14 16 
3 176 186 187 
3 176 188 189 
3 176 187 190 
3 176 189 179 
3 176 190 188 
3 187 186 191 
3 187 191 190 
3 192 181 193 
3 192 194 195 
3 192 195 196 
3 192 196 181 
3 192 193 194 
3 193 181 197 
3 193 197 139 
3 193 139 194 
3 158 198 199 
3 158 159 198 
3 158 141 152 
3 158 199 141 
3 199 142 141 
3 199 198 115 
3 199 115 142 
3 196 195 185 
3 196 185 182 
3 196 182 181 
3 142 115 117 
3 115 180 116 
3 115 198 180 
3 116 180 166 
3 180 198 183 
3 6 200 201 
3 6 201 16 
3 6 7 200 
3 200 18 201 
3 200 7 19 
3 200 19 18 
3 16 202 186 
3 16 201 202 
3 202 203 186 
3 202 201 204 
3 202 204 203 
3 201 18 204 
3 186 203 191 
3 181 205 197 
3 181 183 205 
3 198 159 183 
3 205 183 14 
3 205 14 206 
3 205 206 157 
3 205 157 197 
3 206 14 170 
3 206 170 157 
3 178 189 173 
3 178 179 189 
3 173 189 174 
3 174 183 159 
3 174 189 183 
3 183 189 14 
3 207 208 11 
3 207 11 5 
3 207 5 209 
3 207 210 211 
3 207 209 210 
3 207 211 208 
3 5 212 213 
3 5 213 209 
3 5 4 212 
3 214 11 208 
3 214 215 216 
3 214 12 11 
3 214 216 12 
3 214 208 217 
3 214 217 215 
3 208 211 218 
3 208 219 217 
3 208 218 219 
3 189 191 14 
3 189 190 191 
3 189 188 190 
3 213 220 209 
3 213 212 220 
3 211 210 221 
3 211 221 222 
3 211 223 218 
3 211 222 223 
3 221 210 224 
3 221 224 222 
3 18 12 203 
3 18 203 204 
3 14 215 15 
3 14 191 215 
3 203 12 215 
3 203 215 191 
3 209 225 226 
3 209 226 210 
3 209 220 227 
3 209 228 225 
3 209 227 228 
3 210 220 224 
3 210 226 220 
3 15 219 4 
3 15 215 219 
3 12 216 215 
3 227 226 225 
3 227 220 226 
3 227 225 228 
3 220 212 222 
3 220 222 224 
3 212 4 222 
3 222 219 223 
3 222 4 219 
3 223 219 218 
3 219 215 217 
3 229 230 147 
3 229 147 32 
3 229 32 231 
3 229 231 230 
3 32 147 40 
3 32 232 231 
3 32 34 232 
3 40 163 58 
3 40 147 161 
3 40 161 163 
3 147 145 161 
3 147 233 150 
3 147 230 233 
3 58 163 79 
3 124 81 127 
3 110 112 234 
3 110 234 136 
3 112 79 235 
3 112 235 234 
3 79 184 235 
3 136 194 139 
3 136 234 194 
3 234 235 195 
3 234 195 194 
3 235 185 195 
3 235 184 185 
3 140 139 197 
3 140 197 157 
3 34 22 21 
3 34 21 232 
3 236 237 230 
3 236 238 239 
3 236 231 238 
3 236 230 231 
3 236 239 237 
3 238 21 239 
3 238 231 21 
3 57 233 240 
3 57 241 233 
3 57 242 241 
3 57 239 21 
3 57 240 239 
3 57 151 243 
3 57 243 242 
3 240 233 239 
3 151 150 243 
3 150 233 243 
3 232 21 231 
3 230 237 233 
3 237 239 233 
3 233 241 243 
3 241 242 243 
